<svg width="30" height="30" viewBox="0 0 30 30" fill="none" xmlns="http://www.w3.org/2000/svg">
<g id="phone-svgrepo 1" clip-path="url(#clip0_28_316)">
<g id="SVGRepo_iconCarrier">
<path id="Vector" d="M20.5824 20.4367L21.2832 19.7023L19.656 17.9774L18.9555 18.7118L20.5824 20.4367ZM23.6362 19.3946L26.5752 21.0788L27.6773 18.9419L24.7383 17.2577L23.6362 19.3946ZM27.141 24.4261L24.9557 26.7166L26.5826 28.4415L28.768 26.151L27.141 24.4261ZM23.6241 27.4541C21.3936 27.6732 15.623 27.478 9.37506 20.9293L7.74804 22.6542C14.5661 29.8004 21.0553 30.1494 23.8382 29.876L23.6241 27.4541ZM9.37506 20.9293C3.41952 14.6872 2.43299 9.43703 2.31019 7.15934L0.00638223 7.29735C0.160925 10.1641 1.38248 15.9823 7.74804 22.6542L9.37506 20.9293ZM11.4908 10.9074L11.932 10.445L10.305 8.72012L9.86381 9.18257L11.4908 10.9074ZM12.2832 4.55014L10.3434 1.81873L8.49617 3.27644L10.4359 6.00787L12.2832 4.55014ZM3.81923 1.22422L1.40464 3.75502L3.03166 5.47988L5.44625 2.94907L3.81923 1.22422ZM10.6773 10.045C9.86381 9.18257 9.8627 9.18372 9.8616 9.18489C9.86123 9.18528 9.86012 9.18646 9.85937 9.18725C9.85786 9.18886 9.85632 9.19048 9.85477 9.19215C9.85164 9.19551 9.84841 9.19899 9.84509 9.20263C9.83843 9.20991 9.83138 9.21779 9.82397 9.22629C9.80912 9.24326 9.79283 9.26269 9.77539 9.28463C9.74051 9.32849 9.70099 9.38251 9.65946 9.44713C9.57619 9.57668 9.48545 9.74797 9.40846 9.96338C9.25135 10.4029 9.16712 10.9823 9.27272 11.6998C9.47922 13.1029 10.3959 14.9564 12.7442 17.4176L14.3712 15.6927C12.1737 13.3894 11.6502 11.9877 11.5529 11.3269C11.5066 11.0124 11.5546 10.8576 11.5679 10.821C11.5759 10.7983 11.5797 10.796 11.5699 10.8115C11.5649 10.8191 11.5568 10.8309 11.544 10.8469C11.5377 10.8549 11.5302 10.8639 11.5214 10.874C11.5169 10.8791 11.5123 10.8844 11.5071 10.8899C11.5046 10.8927 11.502 10.8956 11.4992 10.8985C11.4979 10.8999 11.4965 10.9014 11.4951 10.9029C11.4945 10.9036 11.4934 10.9048 11.4929 10.9052C11.4919 10.9063 11.4908 10.9074 10.6773 10.045ZM12.7442 17.4176C15.0933 19.8797 16.8598 20.8379 18.1931 21.0535C18.8744 21.1636 19.4238 21.0758 19.8405 20.9121C20.0448 20.8319 20.2075 20.7373 20.3306 20.6504C20.3921 20.607 20.4435 20.5656 20.4852 20.5291C20.5061 20.511 20.5246 20.4939 20.5408 20.4784C20.5489 20.4706 20.5564 20.4633 20.5634 20.4563C20.5669 20.4527 20.5701 20.4493 20.5734 20.4461C20.5749 20.4445 20.5764 20.4428 20.578 20.4412C20.5787 20.4404 20.58 20.4393 20.5803 20.439C20.5814 20.4378 20.5824 20.4367 19.769 19.5742C18.9555 18.7118 18.9566 18.7107 18.9576 18.7095C18.9579 18.7092 18.959 18.7081 18.9598 18.7073C18.9612 18.7058 18.9626 18.7043 18.9639 18.7029C18.9669 18.7001 18.9695 18.6974 18.9721 18.6946C18.9775 18.6893 18.9826 18.6844 18.9873 18.6797C18.9969 18.6706 19.0055 18.6627 19.0132 18.6562C19.0282 18.6429 19.0395 18.6344 19.0464 18.6294C19.0607 18.6194 19.0578 18.6239 19.035 18.6328C18.9973 18.6476 18.8464 18.6983 18.543 18.6492C17.9072 18.5466 16.5681 17.9952 14.3712 15.6927L12.7442 17.4176ZM10.3434 1.81873C8.77535 -0.389213 5.69191 -0.738585 3.81923 1.22422L5.44625 2.94907C6.26416 2.09179 7.7168 2.17905 8.49617 3.27644L10.3434 1.81873ZM2.31019 7.15934C2.27993 6.59809 2.52412 6.01182 3.03166 5.47988L1.40464 3.75502C0.578049 4.62139 -0.0717814 5.8478 0.00638223 7.29735L2.31019 7.15934ZM24.9557 26.7166C24.5329 27.1598 24.0797 27.4094 23.6241 27.4541L23.8382 29.876C24.9683 29.7649 25.8942 29.1631 26.5826 28.4415L24.9557 26.7166ZM11.932 10.445C13.4465 8.85755 13.5591 6.34668 12.2832 4.55014L10.4359 6.00787C11.0567 6.88187 10.9644 8.02905 10.305 8.72012L11.932 10.445ZM26.5752 21.0788C27.8333 21.7998 28.0293 23.495 27.141 24.4261L28.768 26.151C30.8299 23.9899 30.1941 20.384 27.6773 18.9419L26.5752 21.0788ZM21.2832 19.7023C21.8739 19.0831 22.8247 18.9297 23.6362 19.3946L24.7383 17.2577C23.0713 16.3024 21.0026 16.5663 19.656 17.9774L21.2832 19.7023Z" fill="#111212"/>
</g>
</g>
<defs>
<clipPath id="clip0_28_316">
<rect width="30" height="30" fill="white"/>
</clipPath>
</defs>
</svg>
