<svg width="30" height="30" viewBox="0 0 30 30" fill="none" xmlns="http://www.w3.org/2000/svg">
<g id="email-letter 1">
<g id="SVGRepo_iconCarrier">
<g id="Group">
<path id="Vector" d="M20.0024 15.5769L29.8551 24.1662C29.9488 23.8586 30.0001 23.5323 30.0001 23.1945V6.86057L20.0024 15.5769Z" fill="#111212"/>
<path id="Vector_2" d="M15 16.588C15.4223 16.5871 15.8384 16.442 16.1783 16.1463L29.2729 4.7308C28.6621 3.96463 27.7226 3.47232 26.6666 3.47232H3.33336C2.27732 3.47232 1.33783 3.96457 0.727051 4.7308L13.8216 16.1463C14.161 16.442 14.5776 16.5871 15 16.588Z" fill="#111212"/>
<path id="Vector_3" d="M0 6.86057V23.1945C0 23.5323 0.0512695 23.8586 0.144902 24.1662L9.99756 15.5764L0 6.86057Z" fill="#111212"/>
<path id="Vector_4" d="M17.5472 17.7168C16.8188 18.352 15.9066 18.6721 14.9999 18.6712C14.0933 18.6721 13.1806 18.3516 12.4526 17.7168L11.5828 16.9587L1.35645 25.8738C1.90998 26.2826 2.5923 26.5276 3.33334 26.5276H26.6665C27.4076 26.5276 28.0898 26.2826 28.6434 25.8738L18.417 16.9587L17.5472 17.7168Z" fill="#111212"/>
</g>
</g>
</g>
</svg>
