<svg width="86" height="86" viewBox="0 0 86 86" fill="none" xmlns="http://www.w3.org/2000/svg">
<g clip-path="url(#clip0_28_309)">
<path fill-rule="evenodd" clip-rule="evenodd" d="M4.19073 0.188146C2.55146 -0.417769 0.755331 0.488127 0.178969 2.21145C-0.397393 3.93482 0.464318 5.82304 2.10363 6.42896L3.19943 6.83394C6.00007 7.8691 7.8407 8.55511 9.19504 9.25372C10.4671 9.90987 11.0279 10.441 11.3973 11.0093C11.7759 11.5918 12.0683 12.3919 12.2333 13.9944C12.406 15.6712 12.4102 17.8551 12.4102 21.1184V33.1214C12.4102 39.5272 12.4674 44.1465 13.0424 47.6755C13.6562 51.4431 14.8817 54.1404 17.1732 56.6815C19.6645 59.4436 22.8226 60.6463 26.5824 61.2068C30.1827 61.7435 34.7548 61.7435 40.4003 61.7435H63.0777C66.1892 61.7435 68.8069 61.7435 70.9254 61.471C73.1727 61.1821 75.2225 60.5497 77.0117 59.0172C78.8009 57.4842 79.8035 55.5014 80.5267 53.246C81.208 51.1194 81.7366 48.4243 82.3646 45.2208L84.4995 34.3303L84.5037 34.31L84.5473 34.0796C85.2382 30.4417 85.8192 27.3815 85.964 24.9201C86.1154 22.3349 85.8356 19.7857 84.2339 17.5966C83.2481 16.2496 81.8624 15.487 80.6018 15.0214C79.316 14.5465 77.862 14.2717 76.395 14.0993C73.5125 13.7606 70.0113 13.7606 66.5772 13.7607H18.5343C18.5205 13.5986 18.5055 13.4392 18.4894 13.2825C18.264 11.0933 17.7756 9.09677 16.5927 7.27695C15.4005 5.44293 13.8154 4.26832 11.9669 3.31484C10.2382 2.4231 8.04152 1.61127 5.45512 0.65545L4.19073 0.188146ZM18.7029 20.3759H66.4459C70.0386 20.3759 73.2004 20.3804 75.6957 20.6736C76.9357 20.8193 77.8637 21.0217 78.5156 21.2626C79.0484 21.4595 79.2288 21.6202 79.2548 21.6435C79.2543 21.643 79.256 21.6445 79.2548 21.6435C79.5123 22.0025 79.7922 22.6539 79.6831 24.5126C79.5681 26.4688 79.0794 29.0808 78.3344 33.0055L78.3327 33.0153L76.2402 43.6887C75.5631 47.141 75.1075 49.436 74.5634 51.1331C74.047 52.7446 73.562 53.4387 73.0364 53.889C72.5112 54.3388 71.7665 54.6983 70.1611 54.9047C68.4696 55.1225 66.2399 55.1283 62.8868 55.1283H40.6407C34.6971 55.1283 30.5731 55.1203 27.4659 54.6572C24.4672 54.2101 22.883 53.3977 21.7397 52.1298C20.3966 50.6409 19.6721 49.1824 19.2447 46.5588C18.7784 43.6962 18.7029 39.6882 18.7029 33.1214V20.3759Z" fill="#111212"/>
<path d="M79.2548 21.6435C79.2288 21.6202 79.0484 21.4595 78.5156 21.2626C77.8637 21.0217 76.9357 20.8193 75.6957 20.6736C73.2004 20.3804 70.0386 20.3759 66.4459 20.3759H18.7029V33.1214C18.7029 39.6882 18.7784 43.6962 19.2447 46.5588C19.6721 49.1824 20.3966 50.6409 21.7397 52.1298C22.883 53.3977 24.4672 54.2101 27.4659 54.6572C30.5731 55.1203 34.6971 55.1283 40.6407 55.1283H62.8868C66.2399 55.1283 68.4696 55.1225 70.1611 54.9047C71.7665 54.6983 72.5112 54.3388 73.0364 53.889C73.562 53.4387 74.047 52.7446 74.5634 51.1331C75.1075 49.436 75.5631 47.141 76.2402 43.6887L78.3327 33.0153L78.3344 33.0055C79.0794 29.0808 79.5681 26.4688 79.6831 24.5126C79.7922 22.6539 79.5123 22.0025 79.2548 21.6435ZM79.2548 21.6435C79.2543 21.643 79.256 21.6445 79.2548 21.6435ZM4.19073 0.188146C2.55146 -0.417769 0.755331 0.488127 0.178969 2.21145C-0.397393 3.93482 0.464318 5.82304 2.10363 6.42896L3.19943 6.83394C6.00007 7.8691 7.8407 8.55511 9.19504 9.25372C10.4671 9.90987 11.0279 10.441 11.3973 11.0093C11.7759 11.5918 12.0683 12.3919 12.2333 13.9944C12.406 15.6712 12.4102 17.8551 12.4102 21.1184V33.1214C12.4102 39.5272 12.4674 44.1465 13.0424 47.6755C13.6562 51.4431 14.8817 54.1404 17.1732 56.6815C19.6645 59.4436 22.8226 60.6463 26.5824 61.2068C30.1827 61.7435 34.7548 61.7435 40.4003 61.7435H63.0777C66.1892 61.7435 68.8069 61.7435 70.9254 61.471C73.1727 61.1821 75.2225 60.5497 77.0117 59.0172C78.8009 57.4842 79.8035 55.5014 80.5267 53.246C81.208 51.1194 81.7366 48.4243 82.3646 45.2208L84.4995 34.3303L84.5037 34.31L84.5473 34.0796C85.2382 30.4417 85.8192 27.3815 85.964 24.9201C86.1154 22.3349 85.8356 19.7857 84.2339 17.5966C83.2481 16.2496 81.8624 15.487 80.6018 15.0214C79.316 14.5465 77.862 14.2717 76.395 14.0993C73.5125 13.7606 70.0113 13.7606 66.5772 13.7607H18.5343C18.5205 13.5986 18.5055 13.4392 18.4894 13.2825C18.264 11.0933 17.7756 9.09677 16.5927 7.27695C15.4005 5.44293 13.8154 4.26832 11.9669 3.31484C10.2382 2.4231 8.04152 1.61127 5.45512 0.65545L4.19073 0.188146Z" stroke="black" stroke-width="0.000716667"/>
<path fill-rule="evenodd" clip-rule="evenodd" d="M26.2199 85.9995C21.007 85.9995 16.781 81.5567 16.781 76.0766C16.781 70.5961 21.007 66.1537 26.2199 66.1537C31.433 66.1537 35.6589 70.5961 35.6589 76.0766C35.6589 81.5567 31.433 85.9995 26.2199 85.9995ZM23.0736 76.0766C23.0736 77.9033 24.4823 79.3843 26.2199 79.3843C27.9576 79.3843 29.3663 77.9033 29.3663 76.0766C29.3663 74.2499 27.9576 72.769 26.2199 72.769C24.4823 72.769 23.0736 74.2499 23.0736 76.0766Z" fill="#111212" stroke="black" stroke-width="0.000716667"/>
<path fill-rule="evenodd" clip-rule="evenodd" d="M63.9758 86C58.763 86 54.5369 81.5572 54.5369 76.0771C54.5369 70.5966 58.763 66.1542 63.9758 66.1542C69.1886 66.1542 73.4147 70.5966 73.4147 76.0771C73.4147 81.5572 69.1886 86 63.9758 86ZM60.8295 76.0771C60.8295 77.9038 62.2382 79.3847 63.9758 79.3847C65.7134 79.3847 67.1221 77.9038 67.1221 76.0771C67.1221 74.2504 65.7134 72.7695 63.9758 72.7695C62.2382 72.7695 60.8295 74.2504 60.8295 76.0771Z" fill="#111212" stroke="black" stroke-width="0.000716667"/>
</g>
<defs>
<clipPath id="clip0_28_309">
<rect width="86" height="86" fill="white"/>
</clipPath>
</defs>
</svg>
