<svg width="110" height="62" viewBox="0 0 110 62" fill="none" xmlns="http://www.w3.org/2000/svg">
<path d="M1 30.7551L30.7551 1L45.6327 15.8776L42.8775 18.6327L30.7551 6.5102L6.5102 30.7551L30.7551 55L42.8775 42.8776L45.6327 45.6327L30.7551 60.5102L1 30.7551Z" fill="#F6D937" stroke="black"/>
<path d="M109 30.7551L79.2449 1L64.3673 15.8776L67.1225 18.6327L79.2449 6.5102L103.49 30.7551L79.2449 55L67.1225 42.8776L64.3673 45.6327L79.2449 60.5102L109 30.7551Z" fill="#F6D937" stroke="black"/>
<path d="M55 6.51022L42.8776 18.6327L46.1837 21.9388L55 13.1225L63.8163 21.9388L67.1225 18.6327L55 6.51022Z" fill="#EFF0F2" stroke="black"/>
<path d="M46.1837 21.9388L55 13.1225L63.8164 21.9388L55 30.7551L46.1837 21.9388Z" fill="#F6D937" stroke="black"/>
<path d="M42.8776 42.8775L46.1837 39.5714L55 48.3878L63.8163 39.5714L67.1225 42.8775L55 55L42.8776 42.8775Z" fill="#EFF0F2" stroke="black"/>
<path d="M55 30.7551L46.1837 39.5714L55 48.3878L63.8164 39.5714L55 30.7551Z" fill="#F6D937" stroke="black"/>
<path d="M30.4545 6.89091L55 30.4545L30.4545 55L6.89087 30.4545L30.4545 6.89091Z" fill="#EFF0F2" stroke="black"/>
<path d="M23.0909 41.8857V17.2H25.7006V39.6287H39.5246V41.8857H23.0909Z" fill="black"/>
<path d="M79.0546 6.89091L103.6 30.4545L79.0546 55L55.491 30.4545L79.0546 6.89091Z" fill="#EFF0F2" stroke="black"/>
<path d="M79.3871 43.2907C77.5533 43.2907 75.7901 42.9968 74.0973 42.4091C72.4281 41.7978 71.135 41.022 70.2181 40.0816L71.2408 38.0715C72.1107 38.9178 73.2745 39.6349 74.7321 40.2226C76.2132 40.7869 77.7649 41.069 79.3871 41.069C80.9388 41.069 82.1966 40.8809 83.1605 40.5048C84.1479 40.1051 84.865 39.5761 85.3117 38.9178C85.7819 38.2595 86.017 37.5307 86.017 36.7314C86.017 35.7675 85.7349 34.9916 85.1706 34.4039C84.6299 33.8161 83.9128 33.3577 83.0194 33.0285C82.1261 32.6759 81.1386 32.3702 80.0572 32.1116C78.9757 31.853 77.8942 31.5826 76.8128 31.3005C75.7313 30.9949 74.7321 30.5952 73.8152 30.1015C72.9218 29.6078 72.193 28.9612 71.6288 28.1619C71.088 27.339 70.8176 26.2693 70.8176 24.9528C70.8176 23.7302 71.135 22.6135 71.7698 21.6026C72.4281 20.5681 73.4273 19.7452 74.7674 19.134C76.1074 18.4992 77.8237 18.1818 79.9161 18.1818C81.3032 18.1818 82.6785 18.3817 84.0421 18.7813C85.4057 19.1575 86.5812 19.6865 87.5687 20.3683L86.687 22.4489C85.6291 21.7436 84.5006 21.2264 83.3016 20.8972C82.1261 20.5681 80.9858 20.4035 79.8808 20.4035C78.3997 20.4035 77.1772 20.6034 76.2132 21.003C75.2493 21.4027 74.5323 21.9434 74.0621 22.6252C73.6154 23.2835 73.392 24.0359 73.392 24.8822C73.392 25.8461 73.6624 26.622 74.2031 27.2097C74.7674 27.7975 75.4962 28.2559 76.3896 28.5851C77.3065 28.9142 78.3057 29.2081 79.3871 29.4667C80.4686 29.7253 81.5383 30.0075 82.5963 30.3131C83.6777 30.6187 84.6652 31.0184 85.5585 31.5121C86.4754 31.9823 87.2043 32.6171 87.745 33.4164C88.3092 34.2158 88.5914 35.262 88.5914 36.555C88.5914 37.7541 88.2622 38.8708 87.6039 39.9052C86.9457 40.9162 85.9347 41.739 84.5711 42.3738C83.231 42.9851 81.503 43.2907 79.3871 43.2907Z" fill="black"/>
</svg>
