<svg width="280" height="380" viewBox="0 0 280 380" fill="none" xmlns="http://www.w3.org/2000/svg">
<g clip-path="url(#clip0_219_2)">
<rect width="280" height="380" fill="white"/>
<path d="M102.5 208.667H177.5C178.086 208.667 178.665 208.543 179.2 208.304C179.735 208.065 180.213 207.716 180.604 207.28C180.995 206.843 181.289 206.329 181.468 205.771C181.647 205.213 181.706 204.624 181.642 204.042L173.308 129.042C173.195 128.022 172.711 127.08 171.946 126.396C171.182 125.711 170.192 125.333 169.167 125.333H110.833C109.808 125.333 108.818 125.711 108.054 126.396C107.289 127.08 106.804 128.022 106.692 129.042L100.208 187.375L98.3583 204.042C98.2938 204.624 98.3529 205.213 98.5317 205.771C98.7104 206.329 99.0048 206.843 99.3957 207.28C99.7865 207.716 100.265 208.065 100.8 208.304C101.335 208.543 101.914 208.667 102.5 208.667ZM114.583 133.667H165.417L170.975 183.667H109.008L114.583 133.667ZM108.083 192H171.917L172.846 200.333H107.154L108.083 192ZM156.667 146.167V154.5C156.667 158.92 154.911 163.159 151.785 166.285C148.659 169.411 144.42 171.167 140 171.167C135.58 171.167 131.34 169.411 128.215 166.285C125.089 163.159 123.333 158.92 123.333 154.5V146.167C123.333 145.062 123.772 144.002 124.554 143.22C125.335 142.439 126.395 142 127.5 142C128.605 142 129.665 142.439 130.446 143.22C131.228 144.002 131.667 145.062 131.667 146.167V154.5C131.667 156.71 132.545 158.83 134.107 160.392C135.67 161.955 137.79 162.833 140 162.833C142.21 162.833 144.33 161.955 145.893 160.392C147.455 158.83 148.333 156.71 148.333 154.5V146.167C148.333 145.062 148.772 144.002 149.554 143.22C150.335 142.439 151.395 142 152.5 142C153.605 142 154.665 142.439 155.446 143.22C156.228 144.002 156.667 145.062 156.667 146.167Z" fill="#C4C4C4"/>
<path d="M123.567 192.12L90.4918 162.052C90.0863 161.684 89.59 161.43 89.0541 161.317C88.5181 161.205 87.9618 161.237 87.4424 161.41C86.9768 161.558 76.0834 165.323 76.0834 176.667C76.1168 179.685 77.003 182.632 78.6397 185.168C80.2765 187.703 82.597 189.725 85.3334 190.998V213.667C85.3334 214.484 85.6582 215.269 86.2365 215.847C86.8147 216.425 87.599 216.75 88.4167 216.75H97.6667C98.4845 216.75 99.2687 216.425 99.847 215.847C100.425 215.269 100.75 214.484 100.75 213.667V198.867L120.305 215.976C120.865 216.472 121.586 216.747 122.333 216.75H140.833C141.651 216.75 142.435 216.425 143.014 215.847C143.592 215.269 143.917 214.484 143.917 213.667C143.91 208.158 141.8 202.86 138.018 198.855C134.235 194.85 129.066 192.441 123.567 192.12ZM123.493 210.583L99.6986 189.762C99.2528 189.371 98.7038 189.117 98.1174 189.031C97.531 188.944 96.9321 189.028 96.3923 189.273C95.8526 189.518 95.3949 189.913 95.0741 190.412C94.7532 190.91 94.5829 191.491 94.5834 192.083V210.583H91.5V189C91.4966 188.357 91.2936 187.731 90.9192 187.208C90.5448 186.685 90.0173 186.291 89.4095 186.08C87.4159 185.4 85.6702 184.141 84.395 182.465C83.1198 180.788 82.3731 178.77 82.25 176.667C82.2955 174.845 82.8409 173.07 83.8268 171.537C84.8127 170.004 86.2011 168.772 87.8401 167.975L120.258 197.448C120.826 197.965 121.566 198.25 122.333 198.25C125.886 198.254 129.329 199.483 132.081 201.73C134.833 203.976 136.727 207.103 137.442 210.583H123.493Z" fill="black"/>
<path d="M84.7891 248.758H86.5312C87.0677 248.758 87.5703 248.87 88.0391 249.094C88.5078 249.312 88.9193 249.625 89.2734 250.031C89.6276 250.438 89.9036 250.922 90.1016 251.484C90.2995 252.042 90.3984 252.659 90.3984 253.336C90.3984 254.013 90.2995 254.633 90.1016 255.195C89.9036 255.758 89.6276 256.245 89.2734 256.656C88.9193 257.062 88.5078 257.378 88.0391 257.602C87.5703 257.82 87.0677 257.93 86.5312 257.93H84.7891C84.2526 257.93 83.75 257.82 83.2812 257.602C82.8177 257.378 82.4089 257.062 82.0547 256.656C81.7005 256.25 81.4245 255.768 81.2266 255.211C81.0286 254.648 80.9297 254.029 80.9297 253.352C80.9297 252.674 81.0286 252.057 81.2266 251.5C81.4245 250.938 81.7005 250.453 82.0547 250.047C82.4089 249.635 82.8177 249.318 83.2812 249.094C83.75 248.87 84.2526 248.758 84.7891 248.758ZM84.7891 249.945C84.2526 249.945 83.7969 250.089 83.4219 250.375C83.0521 250.656 82.7708 251.052 82.5781 251.562C82.3906 252.073 82.2969 252.669 82.2969 253.352C82.2969 253.867 82.349 254.333 82.4531 254.75C82.5625 255.167 82.7214 255.523 82.9297 255.82C83.1432 256.117 83.4036 256.346 83.7109 256.508C84.0234 256.669 84.3828 256.75 84.7891 256.75H86.5469C87.0833 256.75 87.5339 256.609 87.8984 256.328C88.2682 256.042 88.5495 255.643 88.7422 255.133C88.9349 254.617 89.0312 254.018 89.0312 253.336C89.0312 252.826 88.9766 252.362 88.8672 251.945C88.7578 251.529 88.5964 251.172 88.3828 250.875C88.1745 250.578 87.9167 250.349 87.6094 250.188C87.3021 250.026 86.9479 249.945 86.5469 249.945H84.7891ZM86.3594 247.156V259.469H84.9844V247.156H86.3594ZM91.8047 255.18V254.375C91.8047 253.719 91.888 253.143 92.0547 252.648C92.2214 252.148 92.4531 251.732 92.75 251.398C93.0469 251.065 93.3932 250.815 93.7891 250.648C94.1849 250.477 94.6094 250.391 95.0625 250.391C95.526 250.391 95.9557 250.477 96.3516 250.648C96.7474 250.815 97.0938 251.065 97.3906 251.398C97.6927 251.732 97.9271 252.148 98.0938 252.648C98.2604 253.143 98.3438 253.719 98.3438 254.375V255.18C98.3438 255.836 98.2604 256.414 98.0938 256.914C97.9271 257.409 97.6953 257.823 97.3984 258.156C97.1016 258.49 96.7552 258.74 96.3594 258.906C95.9635 259.073 95.5365 259.156 95.0781 259.156C94.6198 259.156 94.1927 259.073 93.7969 258.906C93.401 258.74 93.0521 258.49 92.75 258.156C92.4531 257.823 92.2214 257.409 92.0547 256.914C91.888 256.414 91.8047 255.836 91.8047 255.18ZM93.1875 254.375V255.18C93.1875 255.643 93.2344 256.049 93.3281 256.398C93.4219 256.747 93.5547 257.039 93.7266 257.273C93.8984 257.508 94.099 257.685 94.3281 257.805C94.5573 257.919 94.8073 257.977 95.0781 257.977C95.3906 257.977 95.6641 257.919 95.8984 257.805C96.138 257.685 96.3359 257.508 96.4922 257.273C96.6484 257.039 96.7656 256.747 96.8438 256.398C96.9219 256.049 96.9609 255.643 96.9609 255.18V254.375C96.9609 253.911 96.9141 253.508 96.8203 253.164C96.7266 252.815 96.5938 252.523 96.4219 252.289C96.25 252.049 96.0469 251.872 95.8125 251.758C95.5833 251.638 95.3333 251.578 95.0625 251.578C94.7969 251.578 94.5495 251.638 94.3203 251.758C94.0911 251.872 93.8906 252.049 93.7188 252.289C93.5521 252.523 93.4219 252.815 93.3281 253.164C93.2344 253.508 93.1875 253.911 93.1875 254.375ZM102.992 250.547V259H101.609V250.547H102.992ZM105.297 250.547V251.719H99.3359V250.547H105.297ZM106.148 255.18V254.375C106.148 253.719 106.232 253.143 106.398 252.648C106.565 252.148 106.797 251.732 107.094 251.398C107.391 251.065 107.737 250.815 108.133 250.648C108.529 250.477 108.953 250.391 109.406 250.391C109.87 250.391 110.299 250.477 110.695 250.648C111.091 250.815 111.438 251.065 111.734 251.398C112.036 251.732 112.271 252.148 112.438 252.648C112.604 253.143 112.688 253.719 112.688 254.375V255.18C112.688 255.836 112.604 256.414 112.438 256.914C112.271 257.409 112.039 257.823 111.742 258.156C111.445 258.49 111.099 258.74 110.703 258.906C110.307 259.073 109.88 259.156 109.422 259.156C108.964 259.156 108.536 259.073 108.141 258.906C107.745 258.74 107.396 258.49 107.094 258.156C106.797 257.823 106.565 257.409 106.398 256.914C106.232 256.414 106.148 255.836 106.148 255.18ZM107.531 254.375V255.18C107.531 255.643 107.578 256.049 107.672 256.398C107.766 256.747 107.898 257.039 108.07 257.273C108.242 257.508 108.443 257.685 108.672 257.805C108.901 257.919 109.151 257.977 109.422 257.977C109.734 257.977 110.008 257.919 110.242 257.805C110.482 257.685 110.68 257.508 110.836 257.273C110.992 257.039 111.109 256.747 111.188 256.398C111.266 256.049 111.305 255.643 111.305 255.18V254.375C111.305 253.911 111.258 253.508 111.164 253.164C111.07 252.815 110.938 252.523 110.766 252.289C110.594 252.049 110.391 251.872 110.156 251.758C109.927 251.638 109.677 251.578 109.406 251.578C109.141 251.578 108.893 251.638 108.664 251.758C108.435 251.872 108.234 252.049 108.062 252.289C107.896 252.523 107.766 252.815 107.672 253.164C107.578 253.508 107.531 253.911 107.531 254.375ZM122.953 254.211V255.383H119.367V254.211H122.953ZM119.648 250.547V259H118.266V250.547H119.648ZM124.078 250.547V259H122.695V250.547H124.078ZM129.305 259.156C128.799 259.156 128.344 259.081 127.938 258.93C127.531 258.779 127.185 258.549 126.898 258.242C126.612 257.93 126.393 257.536 126.242 257.062C126.091 256.589 126.016 256.029 126.016 255.383V254.43C126.016 253.685 126.102 253.055 126.273 252.539C126.451 252.023 126.688 251.609 126.984 251.297C127.281 250.979 127.617 250.75 127.992 250.609C128.367 250.464 128.753 250.391 129.148 250.391C129.68 250.391 130.133 250.477 130.508 250.648C130.883 250.82 131.188 251.076 131.422 251.414C131.656 251.753 131.828 252.169 131.938 252.664C132.052 253.159 132.109 253.729 132.109 254.375V255.18H126.828V254H130.727V253.805C130.706 253.367 130.646 252.982 130.547 252.648C130.453 252.315 130.297 252.055 130.078 251.867C129.859 251.674 129.549 251.578 129.148 251.578C128.893 251.578 128.656 251.622 128.438 251.711C128.224 251.794 128.039 251.943 127.883 252.156C127.732 252.365 127.612 252.654 127.523 253.023C127.44 253.393 127.398 253.862 127.398 254.43V255.383C127.398 255.836 127.44 256.227 127.523 256.555C127.612 256.878 127.74 257.146 127.906 257.359C128.078 257.568 128.286 257.724 128.531 257.828C128.781 257.927 129.065 257.977 129.383 257.977C129.846 257.977 130.229 257.888 130.531 257.711C130.833 257.529 131.096 257.297 131.32 257.016L132.047 257.883C131.896 258.096 131.698 258.302 131.453 258.5C131.214 258.693 130.917 258.852 130.562 258.977C130.214 259.096 129.794 259.156 129.305 259.156ZM140.18 254.961H138.812V254.07H140.07C140.372 254.07 140.609 254.021 140.781 253.922C140.953 253.818 141.076 253.674 141.148 253.492C141.221 253.31 141.258 253.096 141.258 252.852C141.258 252.633 141.216 252.427 141.133 252.234C141.049 252.036 140.914 251.878 140.727 251.758C140.539 251.633 140.289 251.57 139.977 251.57C139.721 251.57 139.49 251.63 139.281 251.75C139.073 251.865 138.909 252.023 138.789 252.227C138.669 252.424 138.609 252.648 138.609 252.898H137.234C137.234 252.383 137.357 251.94 137.602 251.57C137.852 251.195 138.185 250.906 138.602 250.703C139.018 250.5 139.477 250.398 139.977 250.398C140.393 250.398 140.766 250.453 141.094 250.562C141.422 250.667 141.701 250.823 141.93 251.031C142.159 251.234 142.333 251.49 142.453 251.797C142.578 252.099 142.641 252.451 142.641 252.852C142.641 253.138 142.583 253.409 142.469 253.664C142.354 253.919 142.19 254.146 141.977 254.344C141.763 254.536 141.503 254.688 141.195 254.797C140.893 254.906 140.555 254.961 140.18 254.961ZM138.812 254.414H140.18C140.596 254.414 140.966 254.464 141.289 254.562C141.612 254.656 141.883 254.797 142.102 254.984C142.326 255.172 142.492 255.404 142.602 255.68C142.716 255.951 142.773 256.263 142.773 256.617C142.773 257.013 142.706 257.37 142.57 257.688C142.435 258 142.242 258.266 141.992 258.484C141.747 258.703 141.453 258.87 141.109 258.984C140.771 259.099 140.393 259.156 139.977 259.156C139.508 259.156 139.055 259.062 138.617 258.875C138.185 258.688 137.828 258.398 137.547 258.008C137.266 257.612 137.125 257.109 137.125 256.5H138.5C138.5 256.755 138.56 256.997 138.68 257.227C138.805 257.456 138.977 257.641 139.195 257.781C139.419 257.922 139.68 257.992 139.977 257.992C140.289 257.992 140.549 257.93 140.758 257.805C140.966 257.68 141.122 257.513 141.227 257.305C141.331 257.096 141.383 256.87 141.383 256.625C141.383 256.307 141.336 256.052 141.242 255.859C141.148 255.667 141.005 255.526 140.812 255.438C140.62 255.344 140.372 255.297 140.07 255.297H138.812V254.414ZM149.422 254.211V255.383H145.836V254.211H149.422ZM146.117 250.547V259H144.734V250.547H146.117ZM150.547 250.547V259H149.164V250.547H150.547ZM156.891 257.555V252.969C156.891 252.635 156.839 252.367 156.734 252.164C156.635 251.961 156.484 251.812 156.281 251.719C156.083 251.625 155.833 251.578 155.531 251.578C155.24 251.578 154.987 251.638 154.773 251.758C154.565 251.878 154.404 252.036 154.289 252.234C154.18 252.432 154.125 252.651 154.125 252.891H152.742C152.742 252.589 152.807 252.289 152.938 251.992C153.073 251.695 153.266 251.427 153.516 251.188C153.766 250.943 154.065 250.75 154.414 250.609C154.768 250.464 155.164 250.391 155.602 250.391C156.122 250.391 156.583 250.477 156.984 250.648C157.385 250.815 157.701 251.089 157.93 251.469C158.159 251.849 158.273 252.354 158.273 252.984V257.156C158.273 257.438 158.294 257.737 158.336 258.055C158.383 258.372 158.448 258.646 158.531 258.875V259H157.102C157.034 258.833 156.982 258.612 156.945 258.336C156.909 258.055 156.891 257.794 156.891 257.555ZM157.109 253.875L157.125 254.891H156.164C155.836 254.891 155.536 254.927 155.266 255C155 255.073 154.771 255.18 154.578 255.32C154.385 255.456 154.237 255.625 154.133 255.828C154.034 256.031 153.984 256.263 153.984 256.523C153.984 256.862 154.031 257.133 154.125 257.336C154.219 257.534 154.359 257.677 154.547 257.766C154.734 257.854 154.971 257.898 155.258 257.898C155.607 257.898 155.914 257.818 156.18 257.656C156.445 257.495 156.651 257.299 156.797 257.07C156.948 256.841 157.018 256.628 157.008 256.43L157.312 257.078C157.292 257.281 157.224 257.503 157.109 257.742C157 257.977 156.846 258.203 156.648 258.422C156.451 258.635 156.216 258.812 155.945 258.953C155.68 259.089 155.38 259.156 155.047 259.156C154.557 259.156 154.128 259.062 153.758 258.875C153.393 258.688 153.109 258.411 152.906 258.047C152.703 257.682 152.602 257.232 152.602 256.695C152.602 256.289 152.672 255.914 152.812 255.57C152.953 255.227 153.161 254.93 153.438 254.68C153.714 254.424 154.06 254.227 154.477 254.086C154.898 253.945 155.385 253.875 155.938 253.875H157.109ZM161.922 256.711L164.984 250.547H166.367V259H164.984V252.836L161.922 259H160.547V250.547H161.922V256.711ZM164.617 247.484H165.789C165.789 247.891 165.695 248.253 165.508 248.57C165.32 248.883 165.052 249.128 164.703 249.305C164.354 249.482 163.94 249.57 163.461 249.57C162.737 249.57 162.164 249.378 161.742 248.992C161.326 248.602 161.117 248.099 161.117 247.484H162.289C162.289 247.792 162.378 248.062 162.555 248.297C162.732 248.531 163.034 248.648 163.461 248.648C163.878 248.648 164.174 248.531 164.352 248.297C164.529 248.062 164.617 247.792 164.617 247.484ZM169.867 250.547H171.25L171.148 253.711C171.122 254.513 171.044 255.206 170.914 255.789C170.784 256.372 170.617 256.87 170.414 257.281C170.211 257.688 169.982 258.029 169.727 258.305C169.471 258.581 169.206 258.812 168.93 259H168.258L168.289 257.82L168.562 257.812C168.714 257.609 168.857 257.401 168.992 257.188C169.128 256.969 169.25 256.711 169.359 256.414C169.469 256.112 169.557 255.745 169.625 255.312C169.698 254.875 169.745 254.341 169.766 253.711L169.867 250.547ZM170.188 250.547H174.586V259H173.203V251.883H170.188V250.547ZM167.992 257.812H175.57V261.492H174.188V259H169.375V261.492H167.984L167.992 257.812ZM180.18 259.156C179.674 259.156 179.219 259.081 178.812 258.93C178.406 258.779 178.06 258.549 177.773 258.242C177.487 257.93 177.268 257.536 177.117 257.062C176.966 256.589 176.891 256.029 176.891 255.383V254.43C176.891 253.685 176.977 253.055 177.148 252.539C177.326 252.023 177.562 251.609 177.859 251.297C178.156 250.979 178.492 250.75 178.867 250.609C179.242 250.464 179.628 250.391 180.023 250.391C180.555 250.391 181.008 250.477 181.383 250.648C181.758 250.82 182.062 251.076 182.297 251.414C182.531 251.753 182.703 252.169 182.812 252.664C182.927 253.159 182.984 253.729 182.984 254.375V255.18H177.703V254H181.602V253.805C181.581 253.367 181.521 252.982 181.422 252.648C181.328 252.315 181.172 252.055 180.953 251.867C180.734 251.674 180.424 251.578 180.023 251.578C179.768 251.578 179.531 251.622 179.312 251.711C179.099 251.794 178.914 251.943 178.758 252.156C178.607 252.365 178.487 252.654 178.398 253.023C178.315 253.393 178.273 253.862 178.273 254.43V255.383C178.273 255.836 178.315 256.227 178.398 256.555C178.487 256.878 178.615 257.146 178.781 257.359C178.953 257.568 179.161 257.724 179.406 257.828C179.656 257.927 179.94 257.977 180.258 257.977C180.721 257.977 181.104 257.888 181.406 257.711C181.708 257.529 181.971 257.297 182.195 257.016L182.922 257.883C182.771 258.096 182.573 258.302 182.328 258.5C182.089 258.693 181.792 258.852 181.438 258.977C181.089 259.096 180.669 259.156 180.18 259.156ZM189.469 254.211V255.383H185.883V254.211H189.469ZM186.164 250.547V259H184.781V250.547H186.164ZM190.594 250.547V259H189.211V250.547H190.594ZM192.508 255.18V254.375C192.508 253.719 192.591 253.143 192.758 252.648C192.924 252.148 193.156 251.732 193.453 251.398C193.75 251.065 194.096 250.815 194.492 250.648C194.888 250.477 195.312 250.391 195.766 250.391C196.229 250.391 196.659 250.477 197.055 250.648C197.451 250.815 197.797 251.065 198.094 251.398C198.396 251.732 198.63 252.148 198.797 252.648C198.964 253.143 199.047 253.719 199.047 254.375V255.18C199.047 255.836 198.964 256.414 198.797 256.914C198.63 257.409 198.398 257.823 198.102 258.156C197.805 258.49 197.458 258.74 197.062 258.906C196.667 259.073 196.24 259.156 195.781 259.156C195.323 259.156 194.896 259.073 194.5 258.906C194.104 258.74 193.755 258.49 193.453 258.156C193.156 257.823 192.924 257.409 192.758 256.914C192.591 256.414 192.508 255.836 192.508 255.18ZM193.891 254.375V255.18C193.891 255.643 193.938 256.049 194.031 256.398C194.125 256.747 194.258 257.039 194.43 257.273C194.602 257.508 194.802 257.685 195.031 257.805C195.26 257.919 195.51 257.977 195.781 257.977C196.094 257.977 196.367 257.919 196.602 257.805C196.841 257.685 197.039 257.508 197.195 257.273C197.352 257.039 197.469 256.747 197.547 256.398C197.625 256.049 197.664 255.643 197.664 255.18V254.375C197.664 253.911 197.617 253.508 197.523 253.164C197.43 252.815 197.297 252.523 197.125 252.289C196.953 252.049 196.75 251.872 196.516 251.758C196.286 251.638 196.036 251.578 195.766 251.578C195.5 251.578 195.253 251.638 195.023 251.758C194.794 251.872 194.594 252.049 194.422 252.289C194.255 252.523 194.125 252.815 194.031 253.164C193.938 253.508 193.891 253.911 193.891 254.375Z" fill="black"/>
<circle cx="17" cy="344" r="59" fill="#D9D9D9"/>
<circle cx="266" cy="22" r="59" fill="#D9D9D9" fill-opacity="0.95"/>
<circle cx="116.5" cy="325.5" r="18.5" fill="#EAEAEA"/>
<circle cx="57.5" cy="114.5" r="18.5" fill="#EAEAEA"/>
<circle cx="247.5" cy="133.5" r="18.5" fill="#EBEBEB"/>
<circle cx="24" cy="26" r="39" fill="#D4D4D4"/>
<path d="M304.5 358.845C304.5 380.384 287.039 397.845 265.5 397.845C243.961 397.845 251 394.539 251 373C251 351.461 268.461 334 290 334C311.539 334 304.5 337.306 304.5 358.845Z" fill="#DFDFDF" fill-opacity="0.68"/>
<path d="M216.215 397.702C218.562 324.967 235.889 306.209 300.37 292.273" stroke="#EFEFEF" stroke-width="5"/>
</g>
<defs>
<clipPath id="clip0_219_2">
<rect width="280" height="380" fill="white"/>
</clipPath>
</defs>
</svg>
