<svg width="1297" height="629" viewBox="0 0 1297 629" fill="none" xmlns="http://www.w3.org/2000/svg">
<circle cx="443.5" cy="507.5" r="121.5" fill="#D9D9D9" fill-opacity="0.57"/>
<circle cx="258" cy="395" r="39" fill="#D9D9D9" fill-opacity="0.57"/>
<circle cx="1146" cy="207" r="39" fill="#D9D9D9" fill-opacity="0.36"/>
<circle cx="860" cy="474" r="25" fill="#D9D9D9" fill-opacity="0.46"/>
<circle cx="513" cy="295" r="179" fill="#D9D9D9" fill-opacity="0.57"/>
<circle cx="860.5" cy="171.5" r="82.5" fill="#B8B8B8" fill-opacity="0.57"/>
<circle cx="1069" cy="513" r="116" fill="#D9D9D9" fill-opacity="0.84"/>
<ellipse cx="120.5" cy="96.5" rx="98.5" ry="96.5" fill="#D9D9D9" fill-opacity="0.89"/>
<g clip-path="url(#clip0_302_319)">
<path d="M575 337.18V337M719 337.18V337M719 283V265C719 245.904 711.415 227.591 697.911 214.088C684.409 200.586 666.096 193 647 193C627.904 193 609.591 200.586 596.088 214.088C582.585 227.591 575 245.904 575 265V283H554.125C535.401 283 519.804 297.352 518.249 316.01L506.249 460.01C504.5 480.998 521.063 499 542.125 499H751.875C772.937 499 789.5 480.998 787.751 460.01M719 283H739.874C758.598 283 774.195 297.352 775.75 316.01L782 391M719 283H647" stroke="#2D2D2D" stroke-width="20" stroke-linecap="round" stroke-linejoin="round"/>
<path d="M546 449.5C602.5 416.5 692 417 755 449.5" stroke="#2D2D2D" stroke-width="9" stroke-linecap="round"/>
<path d="M522.117 514.235L458.649 456.536C457.87 455.829 456.918 455.343 455.89 455.127C454.861 454.91 453.794 454.972 452.797 455.305C451.904 455.589 431 462.813 431 484.581C431.064 490.372 432.765 496.027 435.905 500.893C439.046 505.759 443.499 509.638 448.75 512.081V555.581C448.75 557.15 449.373 558.655 450.483 559.764C451.593 560.874 453.097 561.497 454.667 561.497H472.417C473.986 561.497 475.491 560.874 476.6 559.764C477.71 558.655 478.333 557.15 478.333 555.581V527.181L515.857 560.012C516.932 560.963 518.315 561.491 519.75 561.497H555.25C556.819 561.497 558.324 560.874 559.434 559.764C560.543 558.655 561.167 557.15 561.167 555.581C561.154 545.01 557.105 534.843 549.847 527.158C542.589 519.473 532.669 514.85 522.117 514.235ZM521.975 549.664L476.316 509.709C475.46 508.959 474.407 508.472 473.282 508.306C472.156 508.139 471.007 508.301 469.971 508.771C468.936 509.241 468.057 510 467.442 510.956C466.826 511.913 466.499 513.026 466.5 514.164V549.664H460.583V508.247C460.577 507.013 460.187 505.811 459.469 504.808C458.75 503.804 457.738 503.048 456.572 502.644C452.746 501.339 449.396 498.924 446.949 495.706C444.502 492.489 443.069 488.616 442.833 484.581C442.92 481.084 443.967 477.679 445.859 474.738C447.751 471.796 450.415 469.431 453.56 467.902L515.768 524.459C516.858 525.449 518.278 525.998 519.75 525.997C526.568 526.005 533.174 528.363 538.455 532.674C543.736 536.985 547.369 542.986 548.742 549.664H521.975Z" fill="black"/>
</g>
<g clip-path="url(#clip1_302_319)">
<path d="M836.985 52.9974C831.567 54.151 828.858 54.7278 828.25 56.6739C827.642 58.6201 829.538 60.6467 833.329 64.6999L834.31 65.7487C835.388 66.9004 835.927 67.4764 836.178 68.1891C836.43 68.9017 836.366 69.6706 836.237 71.208L836.12 72.6079C835.669 78.0185 835.444 80.7237 837.163 81.9257C838.881 83.1274 841.407 82.0296 846.457 79.8343L847.764 79.2663C849.199 78.6425 849.916 78.3304 850.684 78.33C851.451 78.3299 852.181 78.641 853.642 79.2634L854.971 79.8301C860.11 82.0205 862.68 83.1158 864.35 81.9122C866.02 80.7089 865.685 78.0038 865.015 72.5937M867.486 64.6832C871.113 60.6262 872.927 58.5978 872.24 56.6522C871.554 54.7067 868.821 54.1326 863.357 52.9844L861.943 52.6873C860.39 52.361 859.613 52.1979 858.984 51.7576C858.354 51.3174 857.942 50.6499 857.119 49.315L856.37 48.0997C853.472 43.402 852.024 41.0531 849.929 41.0541C847.834 41.0552 846.481 43.4054 843.774 48.1059" stroke="black" stroke-opacity="0.62" stroke-width="4" stroke-linecap="round"/>
<path d="M828.122 56.6454C818.441 61.3511 809.994 71.8596 810.418 92.7707C814.768 84.7319 825.065 79.3135 835.92 77.589" stroke="black" stroke-opacity="0.62" stroke-width="4" stroke-linecap="round" stroke-linejoin="round"/>
</g>
<g clip-path="url(#clip2_302_319)">
<path d="M150.457 231.628C155.842 230.327 158.534 229.677 159.089 227.715C159.644 225.753 157.694 223.779 153.793 219.83L152.784 218.808C151.676 217.686 151.121 217.125 150.851 216.42C150.58 215.714 150.623 214.944 150.709 213.404L150.788 212.001C151.092 206.58 151.244 203.87 149.493 202.715C147.742 201.56 145.247 202.727 140.259 205.058L138.968 205.662C137.55 206.324 136.842 206.656 136.074 206.677C135.307 206.698 134.569 206.407 133.092 205.825L131.748 205.294C126.551 203.244 123.953 202.219 122.316 203.468C120.679 204.716 121.087 207.411 121.904 212.801M119.65 220.776C116.134 224.93 114.376 227.007 115.115 228.933C115.855 230.859 118.602 231.359 124.096 232.358L125.517 232.617C127.078 232.901 127.859 233.042 128.5 233.465C129.142 233.888 129.571 234.544 130.431 235.856L131.213 237.051C134.237 241.668 135.749 243.977 137.843 243.919C139.937 243.861 141.226 241.474 143.804 236.702" stroke="#343434" stroke-width="4" stroke-linecap="round"/>
<path d="M159.217 227.74C168.767 222.773 176.924 212.038 175.932 191.147C171.801 199.301 161.656 204.997 150.852 207.016" stroke="#343434" stroke-width="4" stroke-linecap="round" stroke-linejoin="round"/>
</g>
<defs>
<clipPath id="clip0_302_319">
<rect width="432" height="432" fill="white" transform="translate(431 139)"/>
</clipPath>
<clipPath id="clip1_302_319">
<rect width="68.4342" height="68.4342" fill="white" transform="translate(813.135 29.7471) rotate(8.51691)"/>
</clipPath>
<clipPath id="clip2_302_319">
<rect width="68.4342" height="68.4342" fill="white" transform="translate(174.931 254.221) rotate(-173.042)"/>
</clipPath>
</defs>
</svg>
