<svg width="30" height="30" viewBox="0 0 30 30" fill="none" xmlns="http://www.w3.org/2000/svg">
<g id="search-alt 1" clip-path="url(#clip0_28_330)">
<g id="SVGRepo_iconCarrier">
<path id="Vector" d="M16.8 24.4C10.6144 24.4 5.6 19.3856 5.6 13.2C5.6 7.01441 10.6144 2 16.8 2C22.9856 2 28 7.01441 28 13.2C28 19.3856 22.9856 24.4 16.8 24.4Z" stroke="#111212" stroke-width="2.66667"/>
<path id="Vector_2" d="M16.8001 7.6C17.5356 7.6 18.2638 7.74485 18.9432 8.02627C19.6226 8.30771 20.2399 8.72019 20.7599 9.2402C21.28 9.76022 21.6924 10.3775 21.9739 11.057C22.2553 11.7363 22.4001 12.4645 22.4001 13.2" stroke="#111212" stroke-width="2.66667" stroke-linecap="round"/>
<path id="Vector_3" d="M-0.000146508 30L5.59985 24.4" stroke="#111212" stroke-width="2.66667" stroke-linecap="round"/>
</g>
</g>
<defs>
<clipPath id="clip0_28_330">
<rect width="30" height="30" fill="white"/>
</clipPath>
</defs>
</svg>
