<svg width="30" height="30" viewBox="0 0 30 30" fill="none" xmlns="http://www.w3.org/2000/svg">
<g id="star 2" clip-path="url(#clip0_28_343)">
<g id="SVGRepo_iconCarrier">
<path id="Vector" d="M13.8294 2.86972C14.188 1.78803 14.3673 1.2472 14.6325 1.0973C14.8619 0.967566 15.1381 0.967566 15.3677 1.0973C15.6327 1.2472 15.8119 1.78803 16.1705 2.86972L18.541 10.0208C18.6431 10.3286 18.6941 10.4826 18.7861 10.5972C18.8673 10.6985 18.9709 10.7774 19.0879 10.8271C19.2202 10.8834 19.3755 10.8867 19.6863 10.8933L26.9046 11.0476C27.9965 11.0709 28.5424 11.0826 28.7603 11.3007C28.9488 11.4894 29.0342 11.7649 28.9874 12.0339C28.9335 12.3446 28.4984 12.6904 27.6281 13.3824L21.8748 17.9561C21.6271 18.1532 21.5033 18.2516 21.4277 18.3786C21.361 18.491 21.3214 18.6187 21.3125 18.7506C21.3024 18.9 21.3473 19.056 21.4373 19.368L23.5281 26.6144C23.8442 27.7106 24.0024 28.2586 23.872 28.5432C23.759 28.7896 23.5355 28.9598 23.2771 28.9964C22.9786 29.0385 22.5305 28.7115 21.634 28.0574L15.7078 23.7332C15.4527 23.547 15.3252 23.4539 15.1866 23.4177C15.064 23.3859 14.9359 23.3859 14.8136 23.4177C14.6749 23.4539 14.5473 23.547 14.2921 23.7332L8.366 28.0574C7.4696 28.7115 7.02139 29.0385 6.72289 28.9964C6.46455 28.9598 6.24103 28.7896 6.12812 28.5432C5.99765 28.2586 6.15578 27.7106 6.47202 26.6144L8.5627 19.368C8.6527 19.056 8.6977 18.9 8.68757 18.7506C8.67862 18.6187 8.63906 18.491 8.57231 18.3786C8.49676 18.2516 8.37291 18.1532 8.12524 17.9561L2.37198 13.3824C1.50172 12.6904 1.06659 12.3446 1.01258 12.0339C0.965812 11.7649 1.0512 11.4894 1.23976 11.3007C1.45762 11.0826 2.00355 11.0709 3.09541 11.0476L10.3137 10.8933C10.6244 10.8867 10.7798 10.8834 10.9122 10.8271C11.0292 10.7774 11.1328 10.6985 11.214 10.5972C11.3059 10.4826 11.357 10.3286 11.459 10.0208L13.8294 2.86972Z" stroke="#F6D937" stroke-width="2" stroke-linecap="round" stroke-linejoin="round"/>
</g>
</g>
<defs>
<clipPath id="clip0_28_343">
<rect width="30" height="30" fill="white"/>
</clipPath>
</defs>
</svg>
