<svg width="30" height="30" viewBox="0 0 30 30" fill="none" xmlns="http://www.w3.org/2000/svg">
<g id="email-letter 1">
<g id="SVGRepo_iconCarrier">
<g id="Group">
<path id="Vector" d="M20.0024 15.5768L29.8551 24.1661C29.9488 23.8585 30.0001 23.5322 30.0001 23.1944V6.86047L20.0024 15.5768Z" fill="#EFF0F2"/>
<path id="Vector_2" d="M15 16.588C15.4223 16.5871 15.8384 16.442 16.1783 16.1463L29.2729 4.73077C28.6621 3.96459 27.7226 3.47229 26.6666 3.47229H3.33336C2.27732 3.47229 1.33783 3.96454 0.727051 4.73077L13.8216 16.1463C14.161 16.442 14.5776 16.5871 15 16.588Z" fill="#EFF0F2"/>
<path id="Vector_3" d="M0 6.86047V23.1944C0 23.5322 0.0512695 23.8585 0.144902 24.1661L9.99756 15.5763L0 6.86047Z" fill="#EFF0F2"/>
<path id="Vector_4" d="M17.5472 17.7168C16.8188 18.352 15.9066 18.672 14.9999 18.6711C14.0933 18.672 13.1806 18.3516 12.4526 17.7168L11.5828 16.9586L1.35645 25.8737C1.90998 26.2826 2.5923 26.5276 3.33334 26.5276H26.6665C27.4076 26.5276 28.0898 26.2826 28.6434 25.8737L18.417 16.9586L17.5472 17.7168Z" fill="#EFF0F2"/>
</g>
</g>
</g>
</svg>
